<?xml version="1.0" encoding="UTF-8"?>
<!DOCTYPE svg PUBLIC "-//W3C//DTD SVG 1.1//EN" "http://www.w3.org/Graphics/SVG/1.1/DTD/svg11.dtd">
<!-- Creator: CorelDRAW 2018 (64 Bit Versão de avaliação) -->
<svg xmlns="http://www.w3.org/2000/svg" xml:space="preserve" width="10.16mm" height="10.16mm" version="1.1" style="shape-rendering:geometricPrecision; text-rendering:geometricPrecision; image-rendering:optimizeQuality; fill-rule:evenodd; clip-rule:evenodd"
viewBox="0 0 1016 1016"
 xmlns:xlink="http://www.w3.org/1999/xlink">
 <defs>
  <style type="text/css">
   <![CDATA[
    .fil1 {fill:#EF3637}
    .fil0 {fill:#FEFEFE}
   ]]>
  </style>
 </defs>
 <g id="Camada_x0020_1">
  <metadata id="CorelCorpID_0Corel-Layer"/>
  <g id="_1872571313664">
   <polygon class="fil0" points="23.08,977.68 983.2,977.68 983.2,17.56 23.08,17.56 "/>
   <path class="fil1" d="M439.74 48.16c-235.43,37.8 -427.8,253.73 -382.12,530.62 36.69,222.43 254.6,419.89 527.64,373.78 223.57,-37.76 419.85,-250.46 376.99,-524.32 -35.29,-225.46 -252.48,-423.45 -522.51,-380.08z"/>
   <path class="fil0" d="M445.4 122c-190.34,34.46 -357.7,213.31 -314.2,449.17 34.36,186.23 217.64,348.46 446.63,307.74 185.46,-32.99 350.48,-214.84 310.69,-443.79 -32.63,-187.78 -214.42,-354.54 -443.12,-313.12z"/>
   <path class="fil1" d="M477.61 622.36l63.69 5.23c9.09,-66.36 12.9,-144.32 18.54,-213.1 5.85,-71.07 36.2,-173.32 -40.88,-183.96 -98.18,-13.56 -66.69,100.98 -61.23,172.12 5.31,69.08 9.66,156.28 19.88,219.71z"/>
   <path class="fil1" d="M480.25 679.68c-11.67,9.03 -18.69,5.75 -22.42,33.64 -7.14,53.22 51.11,71.51 84.48,46.96 48.5,-35.7 0.16,-128.73 -62.06,-80.6z"/>
  </g>
 </g>
</svg>
