<?xml version="1.0" encoding="UTF-8"?>
<!DOCTYPE svg PUBLIC "-//W3C//DTD SVG 1.1//EN" "http://www.w3.org/Graphics/SVG/1.1/DTD/svg11.dtd">
<!-- Creator: CorelDRAW 2018 (64 Bit Versão de avaliação) -->
<svg xmlns="http://www.w3.org/2000/svg" xml:space="preserve" width="101.6mm" height="101.6mm" version="1.1" style="shape-rendering:geometricPrecision; text-rendering:geometricPrecision; image-rendering:optimizeQuality; fill-rule:evenodd; clip-rule:evenodd"
viewBox="0 0 10160 10160"
 xmlns:xlink="http://www.w3.org/1999/xlink">
 <defs>
  <style type="text/css">
   <![CDATA[
    .fil0 {fill:white}
   ]]>
  </style>
 </defs>
 <g id="Camada_x0020_1">
  <metadata id="CorelCorpID_0Corel-Layer"/>
  <g id="_1542980265712">
   <path class="fil0" d="M2788.32 2752.91l-15.11 -7.55 15.11 7.55zm-15.11 -7.55l0 0zm15.11 7.55c24.94,6.66 101.66,53.28 128.03,68.37 41.37,23.67 79.01,49.52 119.74,76.67 192.37,128.25 275.38,205.18 438.3,347.34l292.75 304.03c18.12,23.29 26.86,30.62 44.29,53.92 70.09,93.77 143.73,184.86 208.28,282.75 51.91,78.73 98.71,163.18 151.05,241.78 106.86,160.49 195.79,329.96 303.6,489.6 27.07,40.1 49.54,79.71 75.48,120.93l453.33 732.7c14.07,22.29 20.51,40.66 33.79,64.42 13.67,24.45 21.27,36.96 35.14,63.06 88.72,166.85 199.87,329.33 312.68,480.52l218.8 279.78c17.46,20.78 28.57,32.91 45.4,52.81l136.19 158.42c111.75,116.11 227.19,233.6 347.69,339.75 12.76,11.24 14.08,10.45 25.6,19.73 12.09,9.73 15.77,15.21 27.35,25.53l53.57 44.64c38.62,31.46 74.48,59.58 113.34,90.62 110.66,88.41 226.44,168.15 348.16,241.06 123.99,74.28 245.04,150.06 382.42,206.81l283.59 116.78c383.31,138.23 838.93,221.13 1374.15,205.12 106.8,-3.19 257.35,-21.41 357.05,-35.75 257.99,-37.11 536.72,-102.61 773.26,-216.32 43.39,-20.86 107.26,-37.64 130.94,-73.02l-414.36 84.2c-69.52,11.76 -147.64,18.06 -220.6,28.69 -208.8,30.39 -510.76,29.74 -724.99,23.34 -217.66,-6.5 -531.55,-63.27 -744.41,-124.3 -37.16,-10.66 -59.28,-18.81 -98.28,-30.13l-181.16 -68.13c-63.78,-25.43 -112.51,-49.68 -170.7,-78.58l-234.41 -135.75c-27.81,-18.79 -49.99,-30.69 -78.59,-49.83 -138.97,-93.01 -308.22,-205.67 -431.61,-316.25l-98.38 -82.93c-302.88,-269.84 -486.85,-431.69 -762.53,-801.2 -20.01,-26.82 -32.52,-40.37 -52.03,-68.83 -18.46,-26.9 -34.45,-48.87 -53.78,-74.65 -18.89,-25.19 -31.34,-46.19 -48.86,-72l-322.12 -554.19c-57.9,-114.71 -106.7,-226.94 -147.82,-350.77 -20.8,-62.65 -33.84,-142.92 -49.86,-206.99 -74.03,-296.01 -170.95,-563.26 -300.82,-817.23l-134.87 -242.84c-98.77,-166.01 -213.08,-324.54 -340.6,-467.72l-305.75 -313.69c-13.14,-11.57 -21.33,-21.33 -33.95,-34.05 -23.69,-23.89 -40.2,-32.65 -64.27,-56.59 -15.28,-15.19 -15.62,-14.38 -32.7,-27.73 -182.44,-142.61 -266.79,-217.84 -470.06,-353.35l-226.58 -143.58c-182.52,-114.59 -391.8,-208.29 -599.26,-277.02 -325.15,-107.71 -662.34,-190.83 -1005.98,-240.43 -143.71,-20.75 -298.38,-43.33 -443.98,-54.58 -81.34,-6.29 -150.27,-11.67 -233.59,-15.69 -67.99,-3.29 -164.04,-15.56 -234.01,-15.28 -40.39,0.17 -80.91,0.49 -121.29,0.44 -48.61,-0.07 -67.57,-8.22 -120.51,-7.91 -42.84,0.24 -85.77,0.24 -128.61,0 -52.9,-0.31 -71.81,7.65 -120.77,7.65 14.39,21.48 13.53,17.37 34.51,33.48 88.73,68.13 184.37,166.52 261.98,244.15 132.12,132.13 256.61,274.52 363.79,429.42 12.33,17.82 17.55,27.62 30.37,45.17 158.65,217.18 276.66,531.38 364.04,791.77 49.08,146.24 89.75,296.05 127.12,447.02l61.99 232.63c47.56,164.28 78.08,272.26 151.07,423.07 94.12,194.43 185.05,388.48 295.71,573.04 107.65,179.57 226.32,349.92 351.11,517.63l64.09 79.45c140.97,158.17 296.62,277.63 485.31,375.86 19.55,10.18 27.35,17.71 47.67,27.88 272.86,136.43 601.97,233.49 941.74,289.56 121.55,20.06 254.38,41.89 378.4,52.18 139.62,11.59 598.45,50.58 686.75,8.21 -9.19,-34.45 -47.13,-70.38 -67.98,-98.21l-483.11 -725.58 -173.23 -340.46c-18.64,-41.42 -37.83,-75.5 -55.91,-117.84l-182.25 -422.11c-10.69,-25.54 -18,-36.76 -28.25,-62.4 -81.27,-203.33 -159.83,-407.63 -258.16,-603.03 -151.87,-301.78 -250.13,-478.02 -490.39,-718.3l-132.28 -124.57c-19.4,-18.04 -26.3,-27.58 -47.12,-43.53l-141.37 -115.47c-20.12,-14.78 -34.51,-23.79 -47.48,-43.17z"/>
   <path class="fil0" d="M5711.68 4082.52c0,220.15 13.46,383.87 49.59,584.98 56.16,312.53 113.09,381.79 212.79,663.53 26.72,75.5 46.75,148.91 69.1,225.52l105.63 332.53c9.4,28.4 25.91,89.78 46.34,104.75 9.79,-20.41 24.5,-118.47 30.87,-150.44 33.59,-168.69 73.42,-502.69 74.63,-673.26l7.8 -181.06c-0.01,-70.87 8.02,-117.81 7.66,-181.21l-0.5 -400.1c-5.1,-61.63 -9.6,-131.3 -7.4,-204.62l34.66 -479.04c14.94,-104.59 13.96,-156.56 49.56,-267.74 21.55,-67.32 88.4,-249.12 135.09,-280.39l-23.82 301.03c-35.38,334.06 -15.02,772.24 67.52,1090.63 17.57,67.8 35.29,114.71 45.7,188.49 44.88,318.31 10.37,392.32 -6.57,648.19 -4.54,68.49 -22.4,139.13 -22.4,211.79 15.13,-10.13 36.61,-26.23 50.98,-39.67l202.45 -182.82c21.63,-18.09 31.42,-28.29 50.62,-47.58 32.79,-32.95 68.14,-64.21 98.14,-98.28l90.85 -98c148.74,-154.53 393.04,-489.5 483.93,-671.87 23.02,-46.2 43.79,-86.67 65.58,-130.84 38.89,-78.83 75.46,-191.99 98.27,-287.01 63.41,-264.13 36.5,-549.07 -6.67,-809.58 -23.1,-139.39 -59.43,-260.47 -96.59,-386.89 -40.7,-138.44 -65.34,-163.76 -114.54,-361.39 -53.4,-214.48 -54.32,-353.38 -54.32,-572.71 0,-148.59 17.59,-278.76 30,-423.27 3.84,-44.63 15.32,-93.7 15.32,-135.77 -113.87,9.48 -453.35,204 -556.86,281.65 -135.74,101.81 -317.94,247.34 -429.95,378.36l-10.3 12.35c-106.99,128.24 -156.44,177.31 -255.34,326.35l-208.09 350.93c-130.68,256.09 -229.37,558.2 -281.22,844.38 -28.71,158.42 -48.51,336.02 -48.51,518.08z"/>
  </g>
 </g>
</svg>
